<svg xmlns="http://www.w3.org/2000/svg" xmlns:xlink="http://www.w3.org/1999/xlink" width="112" zoomAndPan="magnify" viewBox="0 0 84 83.999999" height="112" preserveAspectRatio="xMidYMid meet" version="1.0"><defs><clipPath id="f8eac44b12"><path d="M 31 22 L 70 22 L 70 70.769531 L 31 70.769531 Z M 31 22 " clip-rule="nonzero"/></clipPath><clipPath id="9e2c405c11"><path d="M 0 22 L 39 22 L 39 70.769531 L 0 70.769531 Z M 0 22 " clip-rule="nonzero"/></clipPath><clipPath id="10b12f2c40"><path d="M 62 51 L 82.5 51 L 82.5 70.769531 L 62 70.769531 Z M 62 51 " clip-rule="nonzero"/></clipPath></defs><g clip-path="url(#f8eac44b12)"><path fill="#ffcb00" d="M 41.378906 70.59375 C 37.769531 70.507812 34.792969 68.914062 32.890625 65.589844 C 30.941406 62.15625 31.027344 58.640625 33.105469 55.289062 C 38.050781 47.316406 43.0625 39.386719 48.039062 31.4375 C 49.058594 29.808594 50.054688 28.160156 51.117188 26.566406 C 51.46875 26.023438 51.867188 25.523438 52.316406 25.058594 C 52.761719 24.597656 53.25 24.179688 53.78125 23.8125 C 54.308594 23.441406 54.867188 23.128906 55.457031 22.867188 C 56.042969 22.605469 56.652344 22.40625 57.28125 22.261719 C 57.910156 22.121094 58.542969 22.039062 59.1875 22.019531 C 59.832031 22 60.472656 22.042969 61.109375 22.144531 C 61.742188 22.25 62.363281 22.414062 62.964844 22.636719 C 63.570312 22.863281 64.148438 23.144531 64.695312 23.480469 C 69.382812 26.367188 70.953125 32.375 68.035156 37.109375 C 62.066406 46.832031 56.015625 56.503906 49.875 66.128906 C 47.984375 69.105469 45.117188 70.539062 41.378906 70.59375 Z M 41.378906 70.59375 " fill-opacity="1" fill-rule="nonzero"/></g><g clip-path="url(#9e2c405c11)"><path fill="#ff3d57" d="M 10.386719 70.59375 C 6.746094 70.507812 3.785156 68.84375 1.921875 65.535156 C 0 62.097656 0.121094 58.574219 2.207031 55.222656 C 7.527344 46.6875 12.871094 38.164062 18.238281 29.652344 C 18.917969 28.554688 19.59375 27.425781 20.320312 26.359375 C 20.6875 25.832031 21.097656 25.34375 21.558594 24.894531 C 22.015625 24.445312 22.515625 24.042969 23.050781 23.691406 C 23.589844 23.335938 24.152344 23.039062 24.75 22.796875 C 25.34375 22.550781 25.953125 22.367188 26.585938 22.242188 C 27.214844 22.113281 27.851562 22.050781 28.492188 22.046875 C 29.136719 22.042969 29.773438 22.101562 30.402344 22.222656 C 31.035156 22.34375 31.648438 22.523438 32.242188 22.761719 C 32.839844 23 33.410156 23.292969 33.949219 23.640625 C 34.488281 23.988281 34.988281 24.386719 35.453125 24.828125 C 35.917969 25.273438 36.332031 25.761719 36.703125 26.285156 C 37.074219 26.8125 37.386719 27.367188 37.652344 27.953125 C 37.914062 28.539062 38.117188 29.144531 38.261719 29.769531 C 38.40625 30.398438 38.492188 31.03125 38.515625 31.671875 C 38.539062 32.316406 38.5 32.953125 38.398438 33.585938 C 38.300781 34.222656 38.140625 34.839844 37.917969 35.445312 C 37.699219 36.046875 37.425781 36.625 37.09375 37.175781 C 31.148438 46.777344 25.117188 56.347656 19.085938 65.90625 C 17.128906 69.007812 14.246094 70.539062 10.386719 70.59375 Z M 10.386719 70.59375 " fill-opacity="1" fill-rule="nonzero"/></g><g clip-path="url(#10b12f2c40)"><path fill="#00d647" d="M 72.566406 51.128906 C 78.058594 51.15625 82.5 55.519531 82.488281 60.871094 C 82.488281 66.300781 77.929688 70.679688 72.386719 70.613281 C 66.847656 70.542969 62.484375 66.230469 62.488281 60.855469 C 62.496094 55.402344 66.957031 51.097656 72.566406 51.128906 Z M 72.566406 51.128906 " fill-opacity="1" fill-rule="nonzero"/></g></svg>