<svg xmlns="http://www.w3.org/2000/svg" xmlns:xlink="http://www.w3.org/1999/xlink" width="500" zoomAndPan="magnify" viewBox="0 0 375 374.999991" height="500" preserveAspectRatio="xMidYMid meet" version="1.2"><defs><clipPath id="98d469c1c6"><path d="M 88.921875 16.1875 L 245 16.1875 L 245 243 L 88.921875 243 Z M 88.921875 16.1875 "/></clipPath><clipPath id="de213724fe"><path d="M 139 192 L 295.171875 192 L 295.171875 343.9375 L 139 343.9375 Z M 139 192 "/></clipPath><clipPath id="d4a5115d79"><path d="M 88.921875 16.1875 L 245 16.1875 L 245 243 L 88.921875 243 Z M 88.921875 16.1875 "/></clipPath><clipPath id="75f7d2702f"><path d="M 139 192 L 295.171875 192 L 295.171875 343.9375 L 139 343.9375 Z M 139 192 "/></clipPath></defs><g id="2a49480b72"><g clip-rule="nonzero" clip-path="url(#98d469c1c6)"><path style=" stroke:none;fill-rule:nonzero;fill:#825fff;fill-opacity:1;" d="M 194.503906 242.964844 L 88.921875 242.964844 L 88.921875 171.320312 C 88.921875 85.574219 158.933594 16.1875 244.753906 16.1875 L 244.753906 66.394531 C 186.597656 66.394531 139.171875 113.21875 139.171875 171.320312 L 139.171875 192.757812 L 194.503906 192.757812 Z M 194.503906 242.964844 "/></g><g clip-rule="nonzero" clip-path="url(#de213724fe)"><path style=" stroke:none;fill-rule:nonzero;fill:#815eff;fill-opacity:1;" d="M 295.003906 343.9375 L 139.734375 343.9375 L 139.734375 293.734375 L 244.753906 293.734375 L 244.753906 192.757812 L 295.003906 192.757812 Z M 295.003906 343.9375 "/></g><g clip-rule="nonzero" clip-path="url(#d4a5115d79)"><path style=" stroke:none;fill-rule:nonzero;fill:#825fff;fill-opacity:1;" d="M 194.503906 242.964844 L 88.921875 242.964844 L 88.921875 171.320312 C 88.921875 85.574219 158.933594 16.1875 244.753906 16.1875 L 244.753906 66.394531 C 186.597656 66.394531 139.171875 113.21875 139.171875 171.320312 L 139.171875 192.757812 L 194.503906 192.757812 Z M 194.503906 242.964844 "/></g><g clip-rule="nonzero" clip-path="url(#75f7d2702f)"><path style=" stroke:none;fill-rule:nonzero;fill:#815eff;fill-opacity:1;" d="M 295.003906 343.9375 L 139.734375 343.9375 L 139.734375 293.734375 L 244.753906 293.734375 L 244.753906 192.757812 L 295.003906 192.757812 Z M 295.003906 343.9375 "/></g></g></svg>