<svg width="889" height="892" viewBox="0 0 889 892" fill="none" xmlns="http://www.w3.org/2000/svg">
<g opacity="0.62">
<path d="M344.631 138.265C338.07 141.746 331.96 145.647 326.293 150.15L277.884 187.935C283.584 183.506 289.661 179.531 296.223 176.05C301.464 173.286 307.017 170.828 312.936 168.696L361.291 130.891C355.5 133.011 349.947 135.469 344.631 138.265Z" fill="url(#paint0_linear_90_2886)"/>
<path d="M463.635 439.458L583.872 655.462L632.275 617.519L512.037 401.515L463.635 439.458Z" fill="url(#paint1_linear_90_2886)"/>
<path d="M519.466 787.638L470.962 825.517L726.453 732.908L774.957 695.029L519.466 787.638Z" fill="url(#paint2_linear_90_2886)"/>
<path d="M512.037 401.481L632.307 617.606L459.622 680.24L519.595 787.572L774.943 695.089L594.7 371.632L512.037 401.481Z" fill="url(#paint3_linear_90_2886)"/>
<path d="M411.133 717.952L470.97 825.453L519.468 787.536L459.631 680.034L411.133 717.952Z" fill="url(#paint4_linear_90_2886)"/>
<path d="M315.789 601.649L267.347 639.48L440.654 576.922L489.096 539.091L315.789 601.649Z" fill="url(#paint5_linear_90_2886)"/>
<path d="M230.845 448.519L315.924 601.716L489.484 538.936L429.132 431.389L338.557 464.459L313.332 418.616C243.96 294.407 265.7 165.394 361.411 130.877L301.557 23.5239C159.965 74.6322 128.258 265.065 230.845 448.519Z" fill="url(#paint6_linear_90_2886)"/>
<path d="M201.153 89.4497C117.213 155.095 97.9176 289.33 153.959 428.344C162.133 447.77 171.51 467.082 182.093 486.279L267.453 639.55L315.646 601.877L230.286 448.607C219.704 429.409 210.521 409.592 202.853 390.362C146.616 251.853 165.406 117.423 249.851 51.9727L201.153 89.4497Z" fill="url(#paint7_linear_90_2886)"/>
<path d="M429.468 145.76C423.806 148.763 418.535 152.129 413.646 156.014L371.882 188.612C376.799 184.791 382.042 181.361 387.703 178.358C392.225 175.974 397.016 173.854 402.123 172.014L443.841 139.397C438.844 141.227 434.053 143.347 429.468 145.76Z" fill="url(#paint8_linear_90_2886)"/>
<path d="M532.141 405.608L635.875 591.965L677.634 559.23L573.9 372.874L532.141 405.608Z" fill="url(#paint9_linear_90_2886)"/>
<path d="M580.305 706L538.458 738.678L758.884 658.787L800.731 626.109L580.305 706Z" fill="url(#paint10_linear_90_2886)"/>
<path d="M573.897 372.848L677.659 559.309L528.677 613.345L580.417 705.945L800.717 626.157L645.214 347.096L573.897 372.848Z" fill="url(#paint11_linear_90_2886)"/>
<path d="M486.844 645.88L538.469 738.626L580.31 705.913L528.685 613.166L486.844 645.88Z" fill="url(#paint12_linear_90_2886)"/>
<path d="M404.585 545.543L362.793 578.182L512.311 524.208L554.103 491.568L404.585 545.543Z" fill="url(#paint13_linear_90_2886)"/>
<path d="M331.301 413.43L404.703 545.599L554.44 491.436L502.372 398.651L424.229 427.182L402.466 387.631C342.616 280.47 361.372 169.166 443.946 139.386L392.307 46.7678C270.149 90.8612 242.795 255.156 331.301 413.43Z" fill="url(#paint14_linear_90_2886)"/>
<path d="M305.681 103.644C233.262 160.279 216.615 276.089 264.965 396.023C272.016 412.783 280.107 429.444 289.237 446.006L362.881 578.239L404.459 545.738L330.816 413.504C321.686 396.942 313.763 379.845 307.148 363.254C258.63 243.756 274.841 127.777 347.695 71.3107L305.681 103.644Z" fill="url(#paint15_linear_90_2886)"/>
<path d="M507.349 158.507C502.6 161.026 498.178 163.85 494.077 167.109L459.042 194.455C463.167 191.25 467.565 188.373 472.314 185.854C476.108 183.854 480.127 182.075 484.41 180.531L519.406 153.17C515.215 154.705 511.196 156.484 507.349 158.507Z" fill="url(#paint16_linear_90_2886)"/>
<path d="M593.477 376.49L680.496 532.82L715.527 505.36L628.508 349.03L593.477 376.49Z" fill="url(#paint17_linear_90_2886)"/>
<path d="M633.884 628.482L598.78 655.897L783.687 588.873L818.791 561.458L633.884 628.482Z" fill="url(#paint18_linear_90_2886)"/>
<path d="M628.502 349.276L715.394 505.419L590.564 550.499L633.937 628.439L818.72 561.343L688.456 327.259L628.502 349.276Z" fill="url(#paint19_linear_90_2886)"/>
<path d="M555.48 578.047L598.787 655.85L633.886 628.408L590.58 550.605L555.48 578.047Z" fill="url(#paint20_linear_90_2886)"/>
<path d="M486.475 493.876L451.417 521.256L576.844 475.98L611.903 448.6L486.475 493.876Z" fill="url(#paint21_linear_90_2886)"/>
<path d="M425 383.05L486.575 493.924L612.186 448.487L568.507 370.652L502.955 394.586L484.698 361.408C434.492 271.513 450.226 178.143 519.495 153.161L476.176 75.4661C373.701 112.455 350.754 250.278 425 383.05Z" fill="url(#paint22_linear_90_2886)"/>
<path d="M403.508 123.178C368.629 150.443 349.364 193.842 346.849 244.988C344.69 283.241 352.396 325.314 369.352 368.448C375.267 382.507 382.055 396.484 389.713 410.378L451.491 521.305L486.371 494.04L424.593 383.113C416.934 369.219 410.288 354.877 404.738 340.959C364.038 240.715 377.637 143.423 438.753 96.0548L403.508 123.178Z" fill="url(#paint23_linear_90_2886)"/>
<path d="M571.831 161.665C567.805 163.801 564.056 166.195 560.579 168.958L530.875 192.143C534.372 189.425 538.101 186.986 542.128 184.85C545.356 183.122 548.751 181.646 552.383 180.338L582.054 157.14C578.5 158.441 575.093 159.949 571.831 161.665Z" fill="url(#paint24_linear_90_2886)"/>
<path d="M644.862 346.477L718.644 479.029L748.326 455.737L674.544 323.184L644.862 346.477Z" fill="url(#paint25_linear_90_2886)"/>
<path d="M679.111 560.121L649.349 583.364L806.12 526.54L835.882 503.298L679.111 560.121Z" fill="url(#paint26_linear_90_2886)"/>
<path d="M674.55 323.173L748.348 455.788L642.388 494.22L679.187 560.08L835.87 503.332L725.273 304.857L674.55 323.173Z" fill="url(#paint27_linear_90_2886)"/>
<path d="M612.687 517.363L649.376 583.281L679.064 560.06L642.375 494.142L612.687 517.363Z" fill="url(#paint28_linear_90_2886)"/>
<path d="M554.135 445.999L524.411 469.213L630.752 430.825L660.475 407.611L554.135 445.999Z" fill="url(#paint29_linear_90_2886)"/>
<path d="M502.012 352.036L554.217 446.038L660.714 407.516L623.682 341.525L568.105 361.817L552.626 333.688C510.06 257.472 523.4 178.31 582.128 157.13L545.401 91.2571C458.52 122.617 439.065 239.468 502.012 352.036Z" fill="url(#paint30_linear_90_2886)"/>
<path d="M483.792 131.709C432.286 171.989 420.446 254.356 454.834 339.656C459.849 351.576 465.603 363.426 472.096 375.206L524.474 469.253L554.045 446.137L501.668 352.09C495.175 340.31 489.54 328.15 484.835 316.35C450.328 231.36 461.858 148.873 513.673 108.713L483.792 131.709Z" fill="url(#paint31_linear_90_2886)"/>
</g>
<defs>
<linearGradient id="paint0_linear_90_2886" x1="292.879" y1="149.071" x2="346.321" y2="169.691" gradientUnits="userSpaceOnUse">
<stop stop-color="#8735CC"/>
<stop offset="1" stop-color="#9052F5"/>
</linearGradient>
<linearGradient id="paint1_linear_90_2886" x1="444.627" y1="488.529" x2="651.31" y2="568.382" gradientUnits="userSpaceOnUse">
<stop stop-color="#D347DD"/>
<stop offset="1" stop-color="#825FFF"/>
</linearGradient>
<linearGradient id="paint2_linear_90_2886" x1="512.648" y1="717.594" x2="733.326" y2="802.811" gradientUnits="userSpaceOnUse">
<stop stop-color="#4C3D9D"/>
<stop offset="1" stop-color="#802DC4"/>
</linearGradient>
<linearGradient id="paint3_linear_90_2886" x1="547.062" y1="798.208" x2="696.917" y2="411.213" gradientUnits="userSpaceOnUse">
<stop stop-color="#892FE8"/>
<stop offset="1" stop-color="#41378D"/>
</linearGradient>
<linearGradient id="paint4_linear_90_2886" x1="406.494" y1="730.001" x2="524.123" y2="775.446" gradientUnits="userSpaceOnUse">
<stop stop-color="#863AFD"/>
<stop offset="1" stop-color="#D347DD"/>
</linearGradient>
<linearGradient id="paint5_linear_90_2886" x1="298.655" y1="558.5" x2="457.831" y2="619.967" gradientUnits="userSpaceOnUse">
<stop stop-color="#4C3D9D"/>
<stop offset="1" stop-color="#802DC4"/>
</linearGradient>
<linearGradient id="paint6_linear_90_2886" x1="247.135" y1="575.079" x2="439.959" y2="77.1166" gradientUnits="userSpaceOnUse">
<stop stop-color="#892FE8"/>
<stop offset="1" stop-color="#41378D"/>
</linearGradient>
<linearGradient id="paint7_linear_90_2886" x1="148.551" y1="593.509" x2="344.11" y2="88.4712" gradientUnits="userSpaceOnUse">
<stop stop-color="#D347DD"/>
<stop offset="1" stop-color="#863AFD"/>
</linearGradient>
<linearGradient id="paint8_linear_90_2886" x1="384.819" y1="155.083" x2="430.925" y2="172.872" gradientUnits="userSpaceOnUse">
<stop stop-color="#8735CC"/>
<stop offset="1" stop-color="#9052F5"/>
</linearGradient>
<linearGradient id="paint9_linear_90_2886" x1="515.739" y1="447.948" x2="694.054" y2="516.84" gradientUnits="userSpaceOnUse">
<stop stop-color="#D347DD"/>
<stop offset="1" stop-color="#825FFF"/>
</linearGradient>
<linearGradient id="paint10_linear_90_2886" x1="574.424" y1="645.572" x2="764.813" y2="719.093" gradientUnits="userSpaceOnUse">
<stop stop-color="#41378D"/>
<stop offset="1" stop-color="#741AEA"/>
</linearGradient>
<linearGradient id="paint11_linear_90_2886" x1="604.114" y1="715.121" x2="733.4" y2="381.244" gradientUnits="userSpaceOnUse">
<stop stop-color="#892FE8"/>
<stop offset="1" stop-color="#41378D"/>
</linearGradient>
<linearGradient id="paint12_linear_90_2886" x1="482.841" y1="656.277" x2="584.325" y2="695.484" gradientUnits="userSpaceOnUse">
<stop stop-color="#863AFD"/>
<stop offset="1" stop-color="#D347DD"/>
</linearGradient>
<linearGradient id="paint13_linear_90_2886" x1="389.802" y1="508.316" x2="527.129" y2="561.345" gradientUnits="userSpaceOnUse">
<stop stop-color="#4C3D9D"/>
<stop offset="1" stop-color="#802DC4"/>
</linearGradient>
<linearGradient id="paint14_linear_90_2886" x1="345.355" y1="522.618" x2="511.712" y2="93.0042" gradientUnits="userSpaceOnUse">
<stop stop-color="#892FE8"/>
<stop offset="1" stop-color="#41378D"/>
</linearGradient>
<linearGradient id="paint15_linear_90_2886" x1="260.3" y1="538.518" x2="429.018" y2="102.8" gradientUnits="userSpaceOnUse">
<stop stop-color="#D347DD"/>
<stop offset="1" stop-color="#863AFD"/>
</linearGradient>
<linearGradient id="paint16_linear_90_2886" x1="469.894" y1="166.329" x2="508.571" y2="181.252" gradientUnits="userSpaceOnUse">
<stop stop-color="#8735CC"/>
<stop offset="1" stop-color="#9052F5"/>
</linearGradient>
<linearGradient id="paint17_linear_90_2886" x1="579.72" y1="412.006" x2="729.303" y2="469.799" gradientUnits="userSpaceOnUse">
<stop stop-color="#D347DD"/>
<stop offset="1" stop-color="#825FFF"/>
</linearGradient>
<linearGradient id="paint18_linear_90_2886" x1="628.949" y1="577.789" x2="788.662" y2="639.463" gradientUnits="userSpaceOnUse">
<stop stop-color="#4C3D9D"/>
<stop offset="1" stop-color="#802DC4"/>
</linearGradient>
<linearGradient id="paint19_linear_90_2886" x1="568.287" y1="542.702" x2="830.191" y2="395.8" gradientUnits="userSpaceOnUse">
<stop stop-color="#892FE8"/>
<stop offset="1" stop-color="#41378D"/>
</linearGradient>
<linearGradient id="paint20_linear_90_2886" x1="552.123" y1="586.768" x2="637.255" y2="619.658" gradientUnits="userSpaceOnUse">
<stop stop-color="#863AFD"/>
<stop offset="1" stop-color="#D347DD"/>
</linearGradient>
<linearGradient id="paint21_linear_90_2886" x1="474.075" y1="462.648" x2="589.275" y2="507.133" gradientUnits="userSpaceOnUse">
<stop stop-color="#4C3D9D"/>
<stop offset="1" stop-color="#802DC4"/>
</linearGradient>
<linearGradient id="paint22_linear_90_2886" x1="436.789" y1="474.645" x2="576.342" y2="114.253" gradientUnits="userSpaceOnUse">
<stop stop-color="#892FE8"/>
<stop offset="1" stop-color="#41378D"/>
</linearGradient>
<linearGradient id="paint23_linear_90_2886" x1="365.439" y1="487.984" x2="506.972" y2="122.47" gradientUnits="userSpaceOnUse">
<stop stop-color="#D347DD"/>
<stop offset="1" stop-color="#863AFD"/>
</linearGradient>
<linearGradient id="paint24_linear_90_2886" x1="540.077" y1="168.294" x2="572.869" y2="180.946" gradientUnits="userSpaceOnUse">
<stop stop-color="#D347DD"/>
<stop offset="1" stop-color="#863AFD"/>
</linearGradient>
<linearGradient id="paint25_linear_90_2886" x1="684.935" y1="473.574" x2="708.219" y2="328.63" gradientUnits="userSpaceOnUse">
<stop stop-color="#825FFF"/>
<stop offset="1" stop-color="#D347DD"/>
</linearGradient>
<linearGradient id="paint26_linear_90_2886" x1="674.929" y1="517.142" x2="810.338" y2="569.431" gradientUnits="userSpaceOnUse">
<stop stop-color="#4C3D9D"/>
<stop offset="1" stop-color="#802DC4"/>
</linearGradient>
<linearGradient id="paint27_linear_90_2886" x1="696.044" y1="566.607" x2="787.996" y2="329.146" gradientUnits="userSpaceOnUse">
<stop stop-color="#892FE8"/>
<stop offset="1" stop-color="#41378D"/>
</linearGradient>
<linearGradient id="paint28_linear_90_2886" x1="631.344" y1="576.323" x2="660.432" y2="501.106" gradientUnits="userSpaceOnUse">
<stop stop-color="#863AFD"/>
<stop offset="1" stop-color="#D347DD"/>
</linearGradient>
<linearGradient id="paint29_linear_90_2886" x1="543.621" y1="419.522" x2="641.291" y2="457.238" gradientUnits="userSpaceOnUse">
<stop stop-color="#4C3D9D"/>
<stop offset="1" stop-color="#802DC4"/>
</linearGradient>
<linearGradient id="paint30_linear_90_2886" x1="512.008" y1="429.694" x2="630.325" y2="124.142" gradientUnits="userSpaceOnUse">
<stop stop-color="#892FE8"/>
<stop offset="1" stop-color="#41378D"/>
</linearGradient>
<linearGradient id="paint31_linear_90_2886" x1="451.516" y1="441.003" x2="571.512" y2="131.109" gradientUnits="userSpaceOnUse">
<stop stop-color="#D347DD"/>
<stop offset="1" stop-color="#863AFD"/>
</linearGradient>
</defs>
</svg>
